<mxfile host="app.diagrams.net" agent="Mozilla/5.0 (Windows NT 10.0; Win64; x64) AppleWebKit/537.36 (KHTML, like Gecko) Chrome/140.0.0.0 Safari/537.36" version="28.2.7">
  <diagram name="第 1 页" id="di3Dle_nqcafTbBn_FOP">
    <mxGraphModel dx="1426" dy="743" grid="0" gridSize="10" guides="1" tooltips="1" connect="1" arrows="1" fold="1" page="1" pageScale="1" pageWidth="827" pageHeight="1169" math="0" shadow="0">
      <root>
        <mxCell id="0" />
        <mxCell id="1" parent="0" />
        <mxCell id="5DHcFYzK4U1rlR8oiHwe-14" style="edgeStyle=orthogonalEdgeStyle;rounded=0;orthogonalLoop=1;jettySize=auto;html=1;exitX=0.5;exitY=1;exitDx=0;exitDy=0;" edge="1" parent="1" source="5DHcFYzK4U1rlR8oiHwe-2" target="5DHcFYzK4U1rlR8oiHwe-20">
          <mxGeometry relative="1" as="geometry">
            <mxPoint x="342" y="540" as="targetPoint" />
          </mxGeometry>
        </mxCell>
        <mxCell id="5DHcFYzK4U1rlR8oiHwe-19" value="生理特征向量" style="edgeLabel;html=1;align=center;verticalAlign=middle;resizable=0;points=[];" vertex="1" connectable="0" parent="5DHcFYzK4U1rlR8oiHwe-14">
          <mxGeometry x="0.4725" y="2" relative="1" as="geometry">
            <mxPoint as="offset" />
          </mxGeometry>
        </mxCell>
        <mxCell id="5DHcFYzK4U1rlR8oiHwe-2" value="生理信号采集模块" style="rounded=1;whiteSpace=wrap;html=1;" vertex="1" parent="1">
          <mxGeometry x="282" y="298" width="120" height="60" as="geometry" />
        </mxCell>
        <mxCell id="5DHcFYzK4U1rlR8oiHwe-7" style="rounded=0;orthogonalLoop=1;jettySize=auto;html=1;exitX=0.5;exitY=1;exitDx=0;exitDy=0;entryX=0;entryY=0.5;entryDx=0;entryDy=0;" edge="1" parent="1" source="5DHcFYzK4U1rlR8oiHwe-4" target="5DHcFYzK4U1rlR8oiHwe-2">
          <mxGeometry relative="1" as="geometry" />
        </mxCell>
        <mxCell id="5DHcFYzK4U1rlR8oiHwe-15" value="皮肤电反应数据" style="edgeLabel;html=1;align=center;verticalAlign=middle;resizable=0;points=[];" vertex="1" connectable="0" parent="5DHcFYzK4U1rlR8oiHwe-7">
          <mxGeometry x="-0.7436" y="2" relative="1" as="geometry">
            <mxPoint x="37" y="17" as="offset" />
          </mxGeometry>
        </mxCell>
        <mxCell id="5DHcFYzK4U1rlR8oiHwe-4" value="皮肤电传感单元" style="rounded=1;whiteSpace=wrap;html=1;" vertex="1" parent="1">
          <mxGeometry x="81" y="214" width="120" height="60" as="geometry" />
        </mxCell>
        <mxCell id="5DHcFYzK4U1rlR8oiHwe-9" style="rounded=0;orthogonalLoop=1;jettySize=auto;html=1;exitX=0.5;exitY=0;exitDx=0;exitDy=0;entryX=0;entryY=0.5;entryDx=0;entryDy=0;" edge="1" parent="1" source="5DHcFYzK4U1rlR8oiHwe-8" target="5DHcFYzK4U1rlR8oiHwe-2">
          <mxGeometry relative="1" as="geometry" />
        </mxCell>
        <mxCell id="5DHcFYzK4U1rlR8oiHwe-16" value="皮肤温度数据" style="edgeLabel;html=1;align=center;verticalAlign=middle;resizable=0;points=[];" vertex="1" connectable="0" parent="5DHcFYzK4U1rlR8oiHwe-9">
          <mxGeometry x="-0.7462" y="1" relative="1" as="geometry">
            <mxPoint x="27" y="-11" as="offset" />
          </mxGeometry>
        </mxCell>
        <mxCell id="5DHcFYzK4U1rlR8oiHwe-8" value="温度传感单元" style="rounded=1;whiteSpace=wrap;html=1;" vertex="1" parent="1">
          <mxGeometry x="81" y="384" width="120" height="60" as="geometry" />
        </mxCell>
        <mxCell id="5DHcFYzK4U1rlR8oiHwe-11" style="rounded=0;orthogonalLoop=1;jettySize=auto;html=1;exitX=0;exitY=0.5;exitDx=0;exitDy=0;entryX=1;entryY=0.5;entryDx=0;entryDy=0;" edge="1" parent="1" source="5DHcFYzK4U1rlR8oiHwe-10" target="5DHcFYzK4U1rlR8oiHwe-2">
          <mxGeometry relative="1" as="geometry" />
        </mxCell>
        <mxCell id="5DHcFYzK4U1rlR8oiHwe-17" value="握持压力数据" style="edgeLabel;html=1;align=center;verticalAlign=middle;resizable=0;points=[];" vertex="1" connectable="0" parent="5DHcFYzK4U1rlR8oiHwe-11">
          <mxGeometry x="-0.0333" y="1" relative="1" as="geometry">
            <mxPoint as="offset" />
          </mxGeometry>
        </mxCell>
        <mxCell id="5DHcFYzK4U1rlR8oiHwe-10" value="压力阵列单元" style="rounded=1;whiteSpace=wrap;html=1;" vertex="1" parent="1">
          <mxGeometry x="500" y="214" width="120" height="60" as="geometry" />
        </mxCell>
        <mxCell id="5DHcFYzK4U1rlR8oiHwe-13" style="rounded=0;orthogonalLoop=1;jettySize=auto;html=1;exitX=0;exitY=0.5;exitDx=0;exitDy=0;entryX=1;entryY=0.5;entryDx=0;entryDy=0;" edge="1" parent="1" source="5DHcFYzK4U1rlR8oiHwe-12" target="5DHcFYzK4U1rlR8oiHwe-2">
          <mxGeometry relative="1" as="geometry" />
        </mxCell>
        <mxCell id="5DHcFYzK4U1rlR8oiHwe-18" value="生物阻抗数据" style="edgeLabel;html=1;align=center;verticalAlign=middle;resizable=0;points=[];" vertex="1" connectable="0" parent="5DHcFYzK4U1rlR8oiHwe-13">
          <mxGeometry x="0.0503" y="3" relative="1" as="geometry">
            <mxPoint as="offset" />
          </mxGeometry>
        </mxCell>
        <mxCell id="5DHcFYzK4U1rlR8oiHwe-12" value="生物阻抗检测单元" style="rounded=1;whiteSpace=wrap;html=1;" vertex="1" parent="1">
          <mxGeometry x="500" y="369" width="120" height="60" as="geometry" />
        </mxCell>
        <mxCell id="5DHcFYzK4U1rlR8oiHwe-20" value="多模态融合识别模块" style="rounded=1;whiteSpace=wrap;html=1;" vertex="1" parent="1">
          <mxGeometry x="282" y="558" width="120" height="60" as="geometry" />
        </mxCell>
      </root>
    </mxGraphModel>
  </diagram>
</mxfile>
